<svg class="svg-icon" style="width: 1em; height: 1em;vertical-align: middle;fill: currentColor;overflow: hidden;" viewBox="0 0 1024 1024" version="1.1" xmlns="http://www.w3.org/2000/svg"><path d="M943.9 467c0 175.2-193.3 317.1-431.9 317.1-238.5 0-431.9-142-431.9-317.1 0-93 54.5-154.5 141.2-191.7-0.7 4.6-1 9.3-1 14.1V343c0 23.7 8.7 45.5 23.1 62.3-35.7 36-56.5 79.3-56.5 125.8 0 124.7 149.4 225.9 333.6 225.9 184.3 0 333.6-101.1 333.6-225.9 0-58-32.3-110.8-85.3-150.8 4.9-11.5 7.6-24.1 7.6-37.3v-53.6c0-8.8-1.2-17.4-3.5-25.5 103.9 35.5 171 99.9 171 203.1zM720.5 239.8H276.2c-5.5 0-10 4.5-10 10v91.3c0 13 5 24.9 13.3 33.8 9.1 9.9 22.2 16.2 36.7 16.2h364.3c22.8 0 42.2-15.5 48.1-36.5 1.2-4.3 1.9-8.8 1.9-13.5v-91.3c0-5.5-4.5-10-10-10z" fill="#333333" /></svg>