<?xml version="1.0" encoding="iso-8859-1"?>
<!-- Uploaded to: SVG Repo, www.svgrepo.com, Generator: SVG Repo Mixer Tools -->
<svg fill="#000000" height="800px" width="800px" version="1.1" id="Layer_1" xmlns="http://www.w3.org/2000/svg" xmlns:xlink="http://www.w3.org/1999/xlink" 
	 viewBox="0 0 511.999 511.999" xml:space="preserve">
<g>
	<g>
		<path d="M373.219,155.801c-7.421-7.096-17.168-11.003-27.443-11.003c-21.883,0-39.687,17.782-39.687,39.641
			c0.001,4.328,3.51,7.837,7.838,7.837c4.328,0,7.837-3.508,7.837-7.837c0-13.216,10.773-23.968,24.014-23.968
			c6.221,0,12.121,2.365,16.611,6.658c3.128,2.99,8.09,2.88,11.08-0.249C376.458,163.753,376.348,158.792,373.219,155.801z"/>
	</g>
</g>
<g>
	<g>
		<path d="M373.953,343.711c0.019-0.017,0.039-0.031,0.057-0.048c3.257-2.852,3.586-7.802,0.736-11.058
			c-2.85-3.257-7.8-3.586-11.058-0.736c-5.031,4.405-11.494,6.831-18.197,6.831c-15.223,0-27.607-12.36-27.607-27.553
			s12.385-27.554,27.607-27.554c15.224,0,27.609,12.361,27.609,27.554c0,4.329,3.509,7.837,7.837,7.837
			c4.328,0,7.837-3.508,7.837-7.837c0-14.725-7.416-27.746-18.706-35.555v-17.449c0-7.203-5.859-13.061-13.061-13.061h-3.392
			v-21.778c18.144-3.644,31.851-19.686,31.851-38.865c0-4.329-3.509-7.837-7.837-7.837c-4.328,0-7.837,3.508-7.837,7.837
			c0,13.216-10.772,23.968-24.014,23.968c-4.328,0-7.837,3.508-7.837,7.837v28.838h-3.965c-7.202,0-13.061,5.859-13.061,13.061
			v17.45c-11.29,7.809-18.705,20.829-18.705,35.554c0,12.974,5.761,24.622,14.853,32.553
			c-33.867,11.778-58.247,43.964-58.247,81.748c0,47.725,38.882,86.552,86.674,86.552c47.793,0,86.675-38.827,86.675-86.552
			C432.166,387.677,407.802,355.5,373.953,343.711z M336.586,260.755h0.001h17.806v8.088c-2.875-0.602-5.851-0.924-8.904-0.924
			c-3.051,0-6.029,0.322-8.904,0.924V260.755z M345.491,496.327c-39.15,0-71.001-31.796-71.001-70.879
			c0-39.083,31.851-70.881,71.001-70.881c39.15,0,71.002,31.797,71.002,70.881C416.493,464.53,384.641,496.327,345.491,496.327z"/>
	</g>
</g>
<g>
	<g>
		<path d="M233.695,225.966c-2.738-3.35-7.674-3.848-11.026-1.11c-3.352,2.738-3.849,7.676-1.111,11.027
			c10.287,12.59,15.951,28.488,15.951,44.767c0,39.082-31.852,70.88-71.002,70.88c-39.15,0-71.001-31.797-71.001-70.88
			c0-39.083,31.851-70.881,71.001-70.881c12.839,0,25.415,3.456,36.37,9.992c3.718,2.218,8.527,1.003,10.746-2.715
			c2.218-3.717,1.003-8.527-2.714-10.745c-5.064-3.022-10.409-5.502-15.948-7.421c9.078-7.93,14.828-19.57,14.828-32.533
			c0-14.725-7.415-27.746-18.706-35.555v-17.449c0-7.203-5.859-13.061-13.061-13.061h-3.392V78.506
			c18.143-3.644,31.85-19.685,31.85-38.864C206.482,17.784,188.678,0,166.794,0c-21.884,0-39.688,17.784-39.688,39.641
			c0,4.329,3.509,7.837,7.837,7.837s7.837-3.508,7.837-7.837c0-13.216,10.773-23.968,24.015-23.968
			c13.241,0,24.014,10.752,24.014,23.968c0,13.215-10.773,23.968-24.014,23.968c-4.328,0-7.837,3.508-7.837,7.837v28.838h-3.965
			c-7.202,0-13.061,5.859-13.061,13.061v17.449c-11.29,7.81-18.705,20.831-18.705,35.555c0,12.974,5.761,24.623,14.852,32.553
			c-33.867,11.779-58.246,43.964-58.246,81.748c0,47.726,38.882,86.553,86.674,86.553c47.793,0,86.675-38.827,86.675-86.553
			C253.182,260.767,246.261,241.347,233.695,225.966z M157.605,115.958h17.806v8.087c-2.875-0.602-5.851-0.924-8.904-0.924
			s-6.028,0.322-8.903,0.924V115.958z M166.508,138.795c15.223,0,27.608,12.361,27.608,27.554s-12.385,27.554-27.608,27.554
			c-15.223,0-27.608-12.361-27.608-27.554S151.285,138.795,166.508,138.795z"/>
	</g>
</g>
<g>
	<g>
		<path d="M219.224,272.813c-4.328,0-7.837,3.508-7.837,7.837c0,24.679-20.133,44.757-44.879,44.757
			c-4.328,0-7.837,3.508-7.837,7.837c0,4.329,3.509,7.837,7.837,7.837c33.39,0,60.553-27.109,60.553-60.431
			C227.061,276.321,223.552,272.813,219.224,272.813z"/>
	</g>
</g>
<g>
	<g>
		<path d="M398.207,417.611c-4.328,0-7.837,3.508-7.837,7.837c0,24.678-20.133,44.756-44.879,44.756
			c-4.328,0-7.837,3.508-7.837,7.837c0,4.329,3.509,7.837,7.837,7.837c33.39,0,60.553-27.108,60.553-60.43
			C406.044,421.119,402.535,417.611,398.207,417.611z"/>
	</g>
</g>
</svg>