<?xml version="1.0" encoding="iso-8859-1"?>
<!-- Uploaded to: SVG Repo, www.svgrepo.com, Generator: SVG Repo Mixer Tools -->
<!DOCTYPE svg PUBLIC "-//W3C//DTD SVG 1.1//EN" "http://www.w3.org/Graphics/SVG/1.1/DTD/svg11.dtd">
<svg fill="#000000" height="800px" width="800px" version="1.1" id="Capa_1" xmlns="http://www.w3.org/2000/svg" xmlns:xlink="http://www.w3.org/1999/xlink" 
	 viewBox="0 0 442 442" xml:space="preserve">
<g>
	<path d="M421,140h-10.273c-0.195-3.698-0.491-7.406-0.9-11.099c-0.606-5.488-5.547-9.448-11.038-8.841
		c-5.489,0.606-9.448,5.549-8.841,11.038c0.328,2.962,0.572,5.936,0.747,8.901h-20.037C365.494,61.936,300.349,0,221,0
		S76.506,61.936,71.341,140H51.304c0.175-2.966,0.42-5.939,0.747-8.901c0.607-5.489-3.352-10.432-8.841-11.038
		c-5.492-0.604-10.431,3.352-11.038,8.841c-0.408,3.692-0.704,7.401-0.9,11.099H21c-5.523,0-10,4.477-10,10s4.477,10,10,10h10.263
		C36.027,251.428,105.726,325.942,195,338.213V422h-78.356c-5.523,0-10,4.478-10,10s4.477,10,10,10h204.712c5.523,0,10-4.478,10-10
		s-4.477-10-10-10H247v-83.787C336.274,325.942,405.973,251.428,410.737,160H421c5.523,0,10-4.477,10-10S426.523,140,421,140z
		 M221,20c71.682,0,130,58.317,130,130s-58.318,130-130,130S91,221.683,91,150S149.318,20,221,20z M227,422h-12v-82.104
		c1.993,0.063,3.992,0.104,6,0.104c2.008,0,4.007-0.042,6-0.104V422z M235.995,319.331c-0.009,0.001-0.019,0.001-0.029,0.002
		C231.033,319.766,226.044,320,221,320c-5.044,0-10.033-0.234-14.967-0.667c-0.01-0.001-0.019-0.001-0.029-0.002
		C122.548,312.001,56.206,244.119,51.302,160h20.039C76.506,238.064,141.651,300,221,300s144.494-61.936,149.659-140h20.039
		C385.793,244.119,319.452,312.001,235.995,319.331z"/>
	<path d="M202.894,148.463c1.952,1.952,4.512,2.929,7.071,2.929c2.559,0,5.119-0.977,7.071-2.929l71.208-71.208
		c3.905-3.905,3.905-10.237,0-14.143c-3.905-3.904-10.237-3.904-14.143,0l-71.208,71.208
		C198.988,138.226,198.988,144.558,202.894,148.463z"/>
	<path d="M174.609,162.605l-40.497,40.496c-3.905,3.905-3.906,10.237-0.001,14.143c1.953,1.952,4.512,2.929,7.071,2.929
		c2.559,0,5.119-0.977,7.071-2.929l40.497-40.496c3.905-3.905,3.906-10.237,0-14.143C184.846,158.701,178.515,158.7,174.609,162.605
		z"/>
	<path d="M237.287,43.357c-3.905-3.904-10.237-3.904-14.143,0L114.357,152.145c-3.905,3.905-3.905,10.237,0,14.143
		c1.953,1.952,4.512,2.929,7.071,2.929c2.559,0,5.119-0.977,7.071-2.929L237.287,57.5C241.192,53.595,241.192,47.263,237.287,43.357
		z"/>
</g>
</svg>