<?xml version="1.0"?>
<svg xmlns="http://www.w3.org/2000/svg" viewBox="0 0 32 32">
    <path d="M 4 4 C 4 8.2004652 5.277452 12.151531 7.40625 15.09375 C 9.3223667 17.742021 11.992783 19.593124 15 19.9375 L 15 21.34375 L 13 24 L 16 28 L 19 24 L 17 21.34375 L 17 19.9375 C 20.007217 19.593124 22.677633 17.742021 24.59375 15.09375 C 26.722548 12.151531 28 8.2004652 28 4 L 26 4 C 26 7.7895348 24.821202 11.345969 22.96875 13.90625 C 21.116298 16.466531 18.652864 18 16 18 C 13.347136 18 10.883702 16.466531 9.03125 13.90625 C 7.178798 11.345969 6 7.7895348 6 4 L 4 4 z"/>
</svg>
