<?xml version="1.0"?><svg version="1.1" id="圖層_1" xmlns="http://www.w3.org/2000/svg" x="0" y="0" viewBox="0 0 100 100" xml:space="preserve"><path fill="#a0c8d7" d="M41.852 7.5l-5.263 8.262 8.781 10.31h9.26l8.781-10.31L58.148 7.5z"/><path d="M50 33.272c-14.105 0-25.58 11.475-25.58 25.58S35.895 84.432 50 84.432s25.58-11.475 25.58-25.58S64.105 33.272 50 33.272z" fill="none"/><path d="M50 25.204c-18.553 0-33.648 15.094-33.648 33.648S31.447 92.5 50 92.5s33.648-15.094 33.648-33.648S68.553 25.204 50 25.204zm0 63.262c-16.355 0-29.614-13.259-29.614-29.614S33.645 29.238 50 29.238s29.614 13.259 29.614 29.614S66.355 88.466 50 88.466z" fill="#e0e0e0"/><path d="M50 29.238c-16.355 0-29.614 13.259-29.614 29.614S33.645 88.466 50 88.466s29.614-13.259 29.614-29.614S66.355 29.238 50 29.238zm0 55.194c-14.105 0-25.58-11.475-25.58-25.58S35.895 33.272 50 33.272s25.58 11.475 25.58 25.58S64.105 84.432 50 84.432z" fill="#ccc"/><metadata xmlns:d="https://loading.io/stock/">
<d:name>ring</d:name>
<d:tags>diamond,wedding,marry,love,engage,ring,people</d:tags>
<d:license>by</d:license>
<d:slug>mg2q5h</d:slug>
</metadata></svg>